<svg xmlns="http://www.w3.org/2000/svg" viewBox="0 0 1024 504">
  <path d="M 366 246 L 365 247 L 364 248 L 363 249 L 362 250 L 361 251 L 360 252 L 359 253 L 358 254 L 357 255 L 356 256 L 355 257 L 354 258 L 353 259 L 352 260 L 351 261 L 350 262 L 350 263 L 349 264 L 348 265 L 347 266 L 346 267 L 345 268 L 345 269 L 345 270 L 345 271 L 345 272 L 345 273 L 345 274 L 345 275 L 345 276 L 345 277 L 345 278 L 345 279 L 345 280 L 345 281 L 345 282 L 345 283 L 345 284 L 345 285 L 345 286 L 345 287 L 345 288 L 345 289 L 345 290 L 345 291 L 345 292 L 345 293 L 345 294 L 345 295 L 345 296 L 345 297 L 345 298 L 345 299 L 345 300 L 345 301 L 345 302 L 345 303 L 345 304 L 345 305 L 345 306 L 345 307 L 345 308 L 345 309 L 345 310 L 345 311 L 346 312 L 346 313 L 346 314 L 346 315 L 347 316 L 347 317 L 348 318 L 348 319 L 349 320 L 350 321 L 350 322 L 351 323 L 352 324 L 353 325 L 354 326 L 355 326 L 356 327 L 357 328 L 358 328 L 359 329 L 360 329 L 361 330 L 362 330 L 363 330 L 364 330 L 365 331 L 366 331 L 367 331 L 368 331 L 369 331 L 370 331 L 371 331 L 372 331 L 373 331 L 374 331 L 375 331 L 376 331 L 377 331 L 378 331 L 379 331 L 380 331 L 381 331 L 382 331 L 383 331 L 384 331 L 385 331 L 386 331 L 387 331 L 388 331 L 389 331 L 390 331 L 391 331 L 392 331 L 393 331 L 394 331 L 395 331 L 396 331 L 397 331 L 398 331 L 399 331 L 400 331 L 401 331 L 402 331 L 403 331 L 404 331 L 405 331 L 406 331 L 407 331 L 408 331 L 409 331 L 410 331 L 411 331 L 412 331 L 413 331 L 414 331 L 415 331 L 416 331 L 417 331 L 418 331 L 419 331 L 420 331 L 421 331 L 422 331 L 423 331 L 424 331 L 425 331 L 426 331 L 427 331 L 428 331 L 429 331 L 430 331 L 431 331 L 432 331 L 433 331 L 434 331 L 435 331 L 436 331 L 437 331 L 438 331 L 439 331 L 440 331 L 441 331 L 442 331 L 443 331 L 444 331 L 445 331 L 446 331 L 447 331 L 448 331 L 449 331 L 450 331 L 450 330 L 450 329 L 450 328 L 450 327 L 450 326 L 450 325 L 450 324 L 450 323 L 450 322 L 450 321 L 450 320 L 450 319 L 450 318 L 450 317 L 450 316 L 450 315 L 450 314 L 450 313 L 450 312 L 449 311 L 448 311 L 447 311 L 446 311 L 445 311 L 444 311 L 443 311 L 442 311 L 441 311 L 440 311 L 439 311 L 438 311 L 437 311 L 436 311 L 435 311 L 434 311 L 433 311 L 432 311 L 431 311 L 430 311 L 429 311 L 428 311 L 427 311 L 426 311 L 425 311 L 424 311 L 423 311 L 422 311 L 421 311 L 420 311 L 419 311 L 418 311 L 417 311 L 416 311 L 415 311 L 414 311 L 413 311 L 412 311 L 411 311 L 410 311 L 409 311 L 408 311 L 407 311 L 406 311 L 405 311 L 404 311 L 403 311 L 402 311 L 401 311 L 400 311 L 399 311 L 398 311 L 397 311 L 396 311 L 395 311 L 394 311 L 393 311 L 392 311 L 391 311 L 390 311 L 389 311 L 388 311 L 387 311 L 386 311 L 385 311 L 384 311 L 383 311 L 382 311 L 381 311 L 380 311 L 379 311 L 378 311 L 377 311 L 376 311 L 375 311 L 374 311 L 373 311 L 372 311 L 371 311 L 370 311 L 369 311 L 368 310 L 367 309 L 366 308 L 366 307 L 366 306 L 366 305 L 366 304 L 366 303 L 366 302 L 366 301 L 366 300 L 366 299 L 366 298 L 366 297 L 366 296 L 366 295 L 366 294 L 366 293 L 366 292 L 366 291 L 366 290 L 366 289 L 366 288 L 366 287 L 366 286 L 366 285 L 366 284 L 366 283 L 366 282 L 366 281 L 366 280 L 366 279 L 366 278 L 366 277 L 366 276 L 366 275 L 366 274 L 366 273 L 366 272 L 366 271 L 366 270 L 366 269 L 366 268 L 366 267 L 367 266 L 368 266 L 369 266 L 370 266 L 371 266 L 372 266 L 373 266 L 374 266 L 375 266 L 376 266 L 377 266 L 378 266 L 379 266 L 380 266 L 381 266 L 382 266 L 383 266 L 384 266 L 385 266 L 386 266 L 387 266 L 388 266 L 389 266 L 390 266 L 391 266 L 392 266 L 393 266 L 394 266 L 395 266 L 396 266 L 397 266 L 398 266 L 399 266 L 400 266 L 401 266 L 402 266 L 403 266 L 404 266 L 405 266 L 406 266 L 407 266 L 408 266 L 409 266 L 410 266 L 411 266 L 412 266 L 413 266 L 414 266 L 415 266 L 416 266 L 417 266 L 418 266 L 419 266 L 420 266 L 421 266 L 422 266 L 423 266 L 424 266 L 425 266 L 426 266 L 427 266 L 428 266 L 429 266 L 430 266 L 431 266 L 432 266 L 433 266 L 434 266 L 434 265 L 434 264 L 434 263 L 434 262 L 434 261 L 434 260 L 434 259 L 434 258 L 434 257 L 434 256 L 434 255 L 434 254 L 434 253 L 434 252 L 434 251 L 434 250 L 434 249 L 434 248 L 434 247 L 434 246 L 433 246 L 432 246 L 431 246 L 430 246 L 429 246 L 428 246 L 427 246 L 426 246 L 425 246 L 424 246 L 423 246 L 422 246 L 421 246 L 420 246 L 419 246 L 418 246 L 417 246 L 416 246 L 415 246 L 414 246 L 413 246 L 412 246 L 411 246 L 410 246 L 409 246 L 408 246 L 407 246 L 406 246 L 405 246 L 404 246 L 403 246 L 402 246 L 401 246 L 400 246 L 399 246 L 398 246 L 397 246 L 396 246 L 395 246 L 394 246 L 393 246 L 392 246 L 391 246 L 390 246 L 389 246 L 388 246 L 387 246 L 386 246 L 385 246 L 384 246 L 383 246 L 382 246 L 381 246 L 380 246 L 379 246 L 378 246 L 377 246 L 376 246 L 375 246 L 374 246 L 373 246 L 372 246 L 371 246 L 370 246 L 369 246 L 368 246 L 367 246 Z M 520 197 L 520 198 L 519 199 L 519 200 L 519 201 L 518 202 L 518 203 L 518 204 L 517 205 L 517 206 L 516 207 L 516 208 L 516 209 L 515 210 L 515 211 L 514 212 L 514 213 L 513 214 L 513 215 L 513 216 L 512 217 L 512 218 L 511 219 L 511 220 L 510 221 L 510 222 L 509 223 L 509 224 L 508 225 L 508 226 L 507 227 L 507 228 L 506 229 L 506 230 L 505 231 L 505 232 L 504 233 L 504 234 L 503 235 L 503 236 L 502 237 L 502 238 L 501 239 L 500 240 L 500 241 L 499 242 L 499 243 L 498 244 L 497 245 L 497 246 L 496 247 L 496 248 L 495 249 L 494 250 L 494 251 L 493 252 L 493 253 L 493 254 L 493 255 L 493 256 L 493 257 L 493 258 L 494 259 L 495 260 L 496 260 L 497 261 L 498 261 L 499 262 L 500 262 L 501 262 L 502 263 L 503 263 L 504 263 L 505 264 L 506 264 L 507 265 L 508 266 L 509 267 L 510 268 L 510 269 L 510 270 L 510 271 L 510 272 L 509 273 L 509 274 L 509 275 L 508 276 L 508 277 L 507 278 L 507 279 L 506 280 L 506 281 L 506 282 L 506 283 L 506 284 L 507 285 L 507 286 L 508 287 L 509 288 L 510 288 L 511 289 L 512 289 L 513 290 L 514 291 L 513 292 L 512 293 L 511 294 L 511 295 L 510 296 L 509 297 L 509 298 L 509 299 L 509 300 L 510 301 L 510 302 L 511 303 L 512 303 L 513 304 L 514 305 L 515 305 L 516 306 L 516 307 L 517 308 L 518 309 L 518 310 L 519 311 L 519 312 L 519 313 L 519 314 L 519 315 L 519 316 L 519 317 L 519 318 L 519 319 L 519 320 L 519 321 L 519 322 L 519 323 L 519 324 L 518 325 L 518 326 L 518 327 L 518 328 L 518 329 L 518 330 L 518 331 L 518 332 L 518 333 L 518 334 L 518 335 L 519 336 L 520 337 L 521 338 L 522 339 L 523 340 L 524 340 L 525 341 L 526 342 L 527 342 L 528 343 L 529 344 L 530 344 L 531 345 L 532 346 L 533 347 L 534 347 L 535 348 L 536 349 L 537 349 L 538 350 L 539 351 L 540 351 L 541 352 L 542 353 L 543 353 L 544 354 L 545 355 L 546 356 L 547 356 L 548 357 L 549 358 L 550 358 L 551 359 L 552 360 L 553 361 L 554 361 L 555 362 L 556 363 L 557 363 L 558 364 L 559 365 L 560 365 L 561 366 L 562 367 L 563 368 L 564 368 L 565 369 L 566 370 L 567 371 L 568 371 L 569 372 L 570 373 L 571 373 L 572 374 L 573 375 L 574 376 L 575 376 L 576 377 L 577 378 L 578 378 L 579 379 L 580 380 L 581 381 L 582 381 L 583 382 L 584 383 L 585 383 L 586 384 L 587 385 L 588 386 L 589 386 L 590 387 L 591 388 L 592 388 L 593 389 L 593 388 L 593 387 L 593 386 L 593 385 L 593 384 L 593 383 L 593 382 L 593 381 L 593 380 L 593 379 L 593 378 L 593 377 L 593 376 L 593 375 L 593 374 L 593 373 L 593 372 L 593 371 L 593 370 L 593 369 L 593 368 L 593 367 L 593 366 L 593 365 L 592 364 L 592 363 L 592 362 L 592 361 L 592 360 L 592 359 L 592 358 L 592 357 L 592 356 L 592 355 L 592 354 L 592 353 L 592 352 L 592 351 L 592 350 L 592 349 L 592 348 L 592 347 L 592 346 L 592 345 L 592 344 L 592 343 L 592 342 L 592 341 L 592 340 L 592 339 L 592 338 L 592 337 L 592 336 L 592 335 L 592 334 L 592 333 L 592 332 L 592 331 L 592 330 L 592 329 L 592 328 L 592 327 L 592 326 L 592 325 L 592 324 L 592 323 L 592 322 L 592 321 L 592 320 L 592 319 L 592 318 L 592 317 L 592 316 L 592 315 L 592 314 L 592 313 L 592 312 L 592 311 L 592 310 L 592 309 L 592 308 L 592 307 L 592 306 L 592 305 L 592 304 L 592 303 L 592 302 L 592 301 L 592 300 L 592 299 L 592 298 L 592 297 L 592 296 L 592 295 L 592 294 L 592 293 L 592 292 L 592 291 L 592 290 L 592 289 L 592 288 L 592 287 L 592 286 L 592 285 L 592 284 L 592 283 L 592 282 L 592 281 L 592 280 L 592 279 L 592 278 L 592 277 L 592 276 L 592 275 L 592 274 L 592 273 L 592 272 L 592 271 L 592 270 L 592 269 L 592 268 L 592 267 L 592 266 L 592 265 L 592 264 L 593 263 L 593 262 L 593 261 L 593 260 L 593 259 L 593 258 L 593 257 L 593 256 L 593 255 L 593 254 L 593 253 L 593 252 L 593 251 L 593 250 L 593 249 L 592 248 L 591 247 L 590 246 L 589 246 L 588 245 L 587 244 L 586 243 L 585 243 L 584 242 L 583 241 L 582 240 L 581 240 L 580 239 L 579 238 L 578 238 L 577 237 L 576 236 L 575 235 L 574 235 L 573 234 L 572 233 L 571 232 L 570 232 L 569 231 L 568 230 L 567 230 L 566 229 L 565 228 L 564 227 L 563 227 L 562 226 L 561 225 L 560 225 L 559 224 L 558 223 L 557 222 L 556 222 L 555 221 L 554 220 L 553 219 L 552 219 L 551 218 L 550 217 L 549 216 L 548 216 L 547 215 L 546 214 L 545 213 L 544 213 L 543 212 L 542 211 L 541 211 L 540 210 L 539 209 L 538 208 L 537 208 L 536 207 L 535 206 L 534 206 L 533 205 L 532 204 L 531 204 L 530 203 L 529 202 L 528 201 L 527 201 L 526 200 L 525 199 L 524 199 L 523 198 L 522 197 L 521 197 Z M 877 196 L 876 197 L 875 197 L 874 198 L 873 199 L 872 200 L 871 200 L 870 201 L 869 202 L 868 202 L 867 203 L 866 204 L 865 205 L 864 205 L 863 206 L 862 207 L 861 207 L 860 208 L 859 209 L 858 210 L 857 210 L 856 211 L 855 212 L 854 212 L 853 213 L 852 214 L 851 215 L 850 215 L 849 216 L 848 217 L 847 217 L 846 218 L 845 219 L 844 220 L 843 221 L 842 221 L 841 222 L 840 223 L 839 223 L 838 224 L 837 225 L 836 226 L 835 226 L 834 227 L 833 228 L 832 229 L 831 229 L 830 230 L 829 231 L 828 231 L 827 232 L 826 233 L 825 234 L 824 234 L 823 235 L 822 236 L 821 236 L 820 237 L 819 238 L 818 239 L 817 239 L 816 240 L 815 241 L 814 241 L 813 242 L 812 243 L 811 244 L 810 245 L 809 245 L 808 246 L 807 247 L 806 247 L 805 248 L 805 249 L 805 250 L 805 251 L 805 252 L 805 253 L 805 254 L 805 255 L 805 256 L 805 257 L 805 258 L 805 259 L 805 260 L 805 261 L 805 262 L 805 263 L 805 264 L 805 265 L 805 266 L 805 267 L 805 268 L 805 269 L 805 270 L 805 271 L 805 272 L 805 273 L 805 274 L 805 275 L 805 276 L 806 277 L 806 278 L 806 279 L 806 280 L 806 281 L 806 282 L 806 283 L 806 284 L 806 285 L 806 286 L 806 287 L 806 288 L 806 289 L 806 290 L 806 291 L 806 292 L 806 293 L 806 294 L 806 295 L 806 296 L 806 297 L 806 298 L 806 299 L 806 300 L 806 301 L 806 302 L 806 303 L 806 304 L 806 305 L 806 306 L 806 307 L 806 308 L 806 309 L 806 310 L 806 311 L 806 312 L 806 313 L 806 314 L 806 315 L 806 316 L 806 317 L 806 318 L 806 319 L 806 320 L 806 321 L 806 322 L 806 323 L 806 324 L 806 325 L 806 326 L 806 327 L 806 328 L 806 329 L 806 330 L 806 331 L 806 332 L 806 333 L 806 334 L 806 335 L 806 336 L 806 337 L 806 338 L 806 339 L 806 340 L 806 341 L 806 342 L 806 343 L 806 344 L 806 345 L 806 346 L 806 347 L 806 348 L 806 349 L 806 350 L 806 351 L 806 352 L 806 353 L 806 354 L 806 355 L 806 356 L 806 357 L 806 358 L 806 359 L 805 360 L 805 361 L 805 362 L 805 363 L 805 364 L 805 365 L 805 366 L 805 367 L 805 368 L 805 369 L 805 370 L 805 371 L 805 372 L 805 373 L 805 374 L 805 375 L 805 376 L 805 377 L 805 378 L 805 379 L 805 380 L 805 381 L 805 382 L 805 383 L 805 384 L 805 385 L 805 386 L 805 387 L 805 388 L 805 389 L 806 388 L 807 388 L 808 387 L 809 386 L 810 385 L 811 385 L 812 384 L 813 383 L 814 382 L 815 382 L 816 381 L 817 380 L 818 380 L 819 379 L 820 378 L 821 377 L 822 377 L 823 376 L 824 375 L 825 375 L 826 374 L 827 373 L 828 372 L 829 372 L 830 371 L 831 370 L 832 370 L 833 369 L 834 368 L 835 367 L 836 367 L 837 366 L 838 365 L 839 365 L 840 364 L 841 363 L 842 363 L 843 362 L 844 361 L 845 361 L 846 360 L 847 359 L 848 358 L 849 358 L 850 357 L 851 356 L 852 356 L 853 355 L 854 354 L 855 353 L 856 353 L 857 352 L 858 351 L 859 351 L 860 350 L 861 349 L 862 348 L 863 348 L 864 347 L 865 346 L 866 345 L 867 345 L 868 344 L 869 343 L 870 343 L 871 342 L 872 341 L 873 341 L 874 340 L 875 339 L 876 339 L 877 338 L 878 337 L 879 336 L 879 335 L 879 334 L 880 333 L 880 332 L 880 331 L 880 330 L 880 329 L 880 328 L 880 327 L 879 326 L 879 325 L 879 324 L 879 323 L 879 322 L 878 321 L 878 320 L 878 319 L 878 318 L 878 317 L 878 316 L 878 315 L 878 314 L 878 313 L 878 312 L 879 311 L 879 310 L 880 309 L 880 308 L 881 307 L 882 306 L 883 305 L 884 304 L 885 304 L 886 303 L 887 302 L 888 301 L 888 300 L 888 299 L 888 298 L 888 297 L 887 296 L 887 295 L 886 294 L 885 293 L 884 292 L 883 291 L 884 290 L 885 290 L 886 289 L 887 289 L 888 288 L 889 287 L 890 286 L 891 285 L 891 284 L 891 283 L 891 282 L 891 281 L 891 280 L 890 279 L 890 278 L 889 277 L 889 276 L 889 275 L 888 274 L 888 273 L 888 272 L 888 271 L 888 270 L 888 269 L 888 268 L 888 267 L 889 266 L 890 265 L 891 264 L 892 264 L 893 263 L 894 263 L 895 263 L 896 262 L 897 262 L 898 262 L 899 261 L 900 261 L 901 261 L 902 260 L 903 259 L 904 258 L 904 257 L 905 256 L 905 255 L 905 254 L 904 253 L 904 252 L 904 251 L 903 250 L 902 249 L 902 248 L 901 247 L 900 246 L 900 245 L 899 244 L 899 243 L 898 242 L 897 241 L 897 240 L 896 239 L 896 238 L 895 237 L 895 236 L 894 235 L 894 234 L 893 233 L 892 232 L 892 231 L 891 230 L 891 229 L 891 228 L 890 227 L 890 226 L 889 225 L 889 224 L 888 223 L 888 222 L 887 221 L 887 220 L 886 219 L 886 218 L 885 217 L 885 216 L 885 215 L 884 214 L 884 213 L 883 212 L 883 211 L 882 210 L 882 209 L 882 208 L 881 207 L 881 206 L 880 205 L 880 204 L 880 203 L 879 202 L 879 201 L 878 200 L 878 199 L 878 198 L 877 197 Z M 748 192 L 747 193 L 746 194 L 745 195 L 744 196 L 743 196 L 742 197 L 741 198 L 740 199 L 739 199 L 738 200 L 737 201 L 736 202 L 735 203 L 734 204 L 733 204 L 732 205 L 731 206 L 730 207 L 729 207 L 728 208 L 727 209 L 726 210 L 725 211 L 724 211 L 723 212 L 722 213 L 721 214 L 720 215 L 719 215 L 718 216 L 717 217 L 716 218 L 715 218 L 714 219 L 713 220 L 712 221 L 711 222 L 710 222 L 709 223 L 708 224 L 707 225 L 706 226 L 705 226 L 704 227 L 703 228 L 703 229 L 703 230 L 703 231 L 703 232 L 703 233 L 703 234 L 703 235 L 703 236 L 703 237 L 703 238 L 703 239 L 703 240 L 703 241 L 703 242 L 703 243 L 703 244 L 703 245 L 703 246 L 703 247 L 703 248 L 703 249 L 703 250 L 703 251 L 703 252 L 703 253 L 703 254 L 703 255 L 703 256 L 703 257 L 703 258 L 703 259 L 703 260 L 703 261 L 703 262 L 703 263 L 703 264 L 703 265 L 703 266 L 703 267 L 703 268 L 703 269 L 703 270 L 703 271 L 703 272 L 703 273 L 703 274 L 703 275 L 703 276 L 703 277 L 703 278 L 703 279 L 703 280 L 703 281 L 703 282 L 703 283 L 703 284 L 703 285 L 703 286 L 703 287 L 703 288 L 703 289 L 703 290 L 703 291 L 703 292 L 703 293 L 703 294 L 703 295 L 703 296 L 703 297 L 703 298 L 703 299 L 704 298 L 705 297 L 706 297 L 707 296 L 708 295 L 709 294 L 710 294 L 711 293 L 712 292 L 713 291 L 714 291 L 715 290 L 716 289 L 717 288 L 718 287 L 719 287 L 720 286 L 721 285 L 722 284 L 723 284 L 724 283 L 725 282 L 726 281 L 727 281 L 728 280 L 729 279 L 730 278 L 731 277 L 732 277 L 733 276 L 734 275 L 735 274 L 736 274 L 737 273 L 738 272 L 739 271 L 740 271 L 741 270 L 742 269 L 743 268 L 744 268 L 745 267 L 746 266 L 747 265 L 748 265 L 749 264 L 750 263 L 751 262 L 752 262 L 753 261 L 754 260 L 754 259 L 754 258 L 753 257 L 753 256 L 753 255 L 753 254 L 753 253 L 753 252 L 753 251 L 753 250 L 753 249 L 753 248 L 753 247 L 753 246 L 753 245 L 753 244 L 753 243 L 753 242 L 752 241 L 752 240 L 752 239 L 752 238 L 752 237 L 752 236 L 752 235 L 752 234 L 752 233 L 752 232 L 752 231 L 752 230 L 752 229 L 752 228 L 752 227 L 752 226 L 752 225 L 752 224 L 751 223 L 751 222 L 751 221 L 751 220 L 751 219 L 751 218 L 751 217 L 751 216 L 751 215 L 751 214 L 751 213 L 751 212 L 751 211 L 751 210 L 751 209 L 751 208 L 751 207 L 751 206 L 750 205 L 750 204 L 750 203 L 750 202 L 750 201 L 750 200 L 750 199 L 750 198 L 750 197 L 750 196 L 750 195 L 750 194 L 750 193 L 750 192 L 749 192 Z M 648 191 L 648 192 L 648 193 L 648 194 L 648 195 L 648 196 L 648 197 L 647 198 L 647 199 L 647 200 L 647 201 L 647 202 L 647 203 L 647 204 L 647 205 L 647 206 L 647 207 L 647 208 L 647 209 L 647 210 L 647 211 L 647 212 L 647 213 L 647 214 L 647 215 L 647 216 L 647 217 L 646 218 L 646 219 L 646 220 L 646 221 L 646 222 L 646 223 L 646 224 L 646 225 L 646 226 L 646 227 L 646 228 L 646 229 L 646 230 L 646 231 L 646 232 L 645 233 L 645 234 L 645 235 L 645 236 L 645 237 L 645 238 L 645 239 L 645 240 L 645 241 L 645 242 L 645 243 L 645 244 L 645 245 L 645 246 L 645 247 L 645 248 L 645 249 L 645 250 L 645 251 L 644 252 L 644 253 L 644 254 L 644 255 L 644 256 L 644 257 L 644 258 L 644 259 L 644 260 L 645 261 L 646 262 L 647 263 L 648 263 L 649 264 L 650 265 L 651 265 L 652 266 L 653 267 L 654 268 L 655 269 L 656 269 L 657 270 L 658 271 L 659 272 L 660 273 L 661 273 L 662 274 L 663 275 L 664 276 L 665 276 L 666 277 L 667 278 L 668 279 L 669 279 L 670 280 L 671 281 L 672 282 L 673 282 L 674 283 L 675 284 L 676 285 L 677 286 L 678 286 L 679 287 L 680 288 L 681 289 L 682 289 L 683 290 L 684 291 L 685 292 L 686 293 L 687 293 L 688 294 L 689 295 L 690 296 L 691 296 L 692 297 L 693 298 L 694 299 L 695 299 L 695 298 L 695 297 L 695 296 L 695 295 L 695 294 L 695 293 L 695 292 L 695 291 L 695 290 L 695 289 L 695 288 L 695 287 L 695 286 L 695 285 L 695 284 L 695 283 L 695 282 L 695 281 L 695 280 L 695 279 L 695 278 L 695 277 L 695 276 L 695 275 L 695 274 L 695 273 L 695 272 L 695 271 L 695 270 L 695 269 L 695 268 L 695 267 L 695 266 L 695 265 L 695 264 L 695 263 L 695 262 L 695 261 L 695 260 L 695 259 L 695 258 L 695 257 L 695 256 L 695 255 L 695 254 L 695 253 L 695 252 L 695 251 L 695 250 L 695 249 L 695 248 L 695 247 L 695 246 L 695 245 L 695 244 L 695 243 L 695 242 L 695 241 L 695 240 L 695 239 L 695 238 L 695 237 L 695 236 L 695 235 L 695 234 L 695 233 L 695 232 L 695 231 L 695 230 L 695 229 L 695 228 L 694 227 L 693 227 L 692 226 L 691 225 L 690 224 L 689 224 L 688 223 L 687 222 L 686 221 L 685 220 L 684 220 L 683 219 L 682 218 L 681 217 L 680 217 L 679 216 L 678 215 L 677 214 L 676 214 L 675 213 L 674 212 L 673 211 L 672 210 L 671 210 L 670 209 L 669 208 L 668 207 L 667 207 L 666 206 L 665 205 L 664 204 L 663 203 L 662 203 L 661 202 L 660 201 L 659 200 L 658 199 L 657 199 L 656 198 L 655 197 L 654 196 L 653 195 L 652 195 L 651 194 L 650 193 L 649 192 Z M 296 184 L 296 185 L 296 186 L 296 187 L 296 188 L 296 189 L 296 190 L 296 191 L 296 192 L 296 193 L 296 194 L 296 195 L 296 196 L 296 197 L 296 198 L 296 199 L 296 200 L 296 201 L 296 202 L 296 203 L 296 204 L 296 205 L 296 206 L 296 207 L 296 208 L 296 209 L 296 210 L 296 211 L 296 212 L 296 213 L 296 214 L 296 215 L 296 216 L 296 217 L 296 218 L 296 219 L 296 220 L 296 221 L 296 222 L 296 223 L 296 224 L 296 225 L 296 226 L 296 227 L 296 228 L 296 229 L 296 230 L 296 231 L 296 232 L 296 233 L 296 234 L 296 235 L 296 236 L 296 237 L 296 238 L 296 239 L 296 240 L 296 241 L 296 242 L 296 243 L 296 244 L 296 245 L 295 246 L 294 246 L 293 246 L 292 246 L 291 246 L 290 246 L 289 246 L 288 246 L 287 246 L 286 246 L 285 246 L 284 246 L 283 246 L 282 246 L 281 246 L 280 246 L 279 246 L 278 246 L 277 246 L 276 246 L 275 246 L 274 246 L 273 246 L 272 246 L 271 246 L 270 246 L 269 246 L 268 246 L 267 246 L 266 246 L 265 246 L 264 246 L 263 246 L 262 246 L 261 246 L 260 246 L 259 246 L 258 246 L 257 246 L 256 246 L 255 246 L 254 246 L 253 246 L 252 246 L 251 246 L 250 246 L 249 246 L 248 246 L 247 246 L 246 246 L 245 246 L 244 246 L 243 246 L 242 246 L 241 246 L 240 246 L 239 246 L 238 246 L 237 246 L 236 246 L 235 246 L 234 246 L 233 246 L 232 246 L 231 246 L 230 247 L 229 247 L 229 248 L 228 249 L 227 250 L 226 250 L 226 251 L 225 252 L 224 252 L 224 253 L 223 254 L 222 254 L 222 255 L 221 256 L 220 257 L 219 258 L 218 259 L 217 260 L 216 261 L 215 262 L 214 263 L 213 264 L 212 265 L 211 266 L 210 267 L 209 268 L 208 269 L 207 270 L 206 271 L 205 272 L 204 273 L 203 274 L 202 275 L 201 276 L 200 277 L 199 278 L 198 279 L 197 280 L 196 281 L 196 282 L 196 283 L 196 284 L 196 285 L 196 286 L 196 287 L 196 288 L 196 289 L 196 290 L 196 291 L 196 292 L 196 293 L 196 294 L 196 295 L 196 296 L 196 297 L 196 298 L 196 299 L 196 300 L 196 301 L 196 302 L 196 303 L 196 304 L 196 305 L 196 306 L 196 307 L 196 308 L 196 309 L 196 310 L 196 311 L 196 312 L 196 313 L 196 314 L 196 315 L 196 316 L 196 317 L 196 318 L 196 319 L 196 320 L 196 321 L 196 322 L 196 323 L 196 324 L 196 325 L 196 326 L 196 327 L 196 328 L 196 329 L 196 330 L 196 331 L 197 331 L 198 331 L 199 331 L 200 331 L 201 331 L 202 331 L 203 331 L 204 331 L 205 331 L 206 331 L 207 331 L 208 331 L 209 331 L 210 331 L 211 331 L 212 331 L 213 331 L 214 331 L 215 331 L 216 331 L 217 331 L 218 331 L 218 330 L 218 329 L 218 328 L 218 327 L 218 326 L 218 325 L 218 324 L 218 323 L 218 322 L 218 321 L 218 320 L 218 319 L 218 318 L 218 317 L 218 316 L 218 315 L 218 314 L 218 313 L 218 312 L 218 311 L 218 310 L 218 309 L 218 308 L 218 307 L 218 306 L 218 305 L 218 304 L 218 303 L 218 302 L 218 301 L 218 300 L 218 299 L 218 298 L 218 297 L 218 296 L 218 295 L 218 294 L 218 293 L 218 292 L 218 291 L 218 290 L 218 289 L 218 288 L 218 287 L 218 286 L 218 285 L 218 284 L 218 283 L 218 282 L 218 281 L 218 280 L 218 279 L 218 278 L 218 277 L 218 276 L 218 275 L 218 274 L 218 273 L 218 272 L 218 271 L 218 270 L 218 269 L 218 268 L 218 267 L 219 266 L 220 266 L 221 266 L 222 266 L 223 266 L 224 266 L 225 266 L 226 266 L 227 266 L 228 266 L 229 266 L 230 266 L 231 266 L 232 266 L 233 266 L 234 266 L 235 266 L 236 266 L 237 266 L 238 266 L 239 266 L 240 266 L 241 266 L 242 266 L 243 266 L 244 266 L 245 266 L 246 266 L 247 266 L 248 266 L 249 266 L 250 266 L 251 266 L 252 266 L 253 266 L 254 266 L 255 266 L 256 266 L 257 266 L 258 266 L 259 266 L 260 266 L 261 266 L 262 266 L 263 266 L 264 266 L 265 266 L 266 266 L 267 266 L 268 266 L 269 266 L 270 266 L 271 266 L 272 266 L 273 266 L 274 266 L 275 266 L 276 266 L 277 266 L 278 266 L 279 266 L 280 266 L 281 266 L 282 266 L 283 266 L 284 266 L 285 266 L 286 266 L 287 266 L 288 266 L 289 266 L 290 266 L 291 266 L 292 266 L 293 266 L 294 266 L 295 266 L 296 267 L 296 268 L 296 269 L 296 270 L 296 271 L 296 272 L 296 273 L 296 274 L 296 275 L 296 276 L 296 277 L 296 278 L 296 279 L 296 280 L 296 281 L 296 282 L 296 283 L 296 284 L 296 285 L 296 286 L 296 287 L 296 288 L 296 289 L 296 290 L 296 291 L 296 292 L 296 293 L 296 294 L 296 295 L 296 296 L 296 297 L 296 298 L 296 299 L 296 300 L 296 301 L 296 302 L 296 303 L 296 304 L 296 305 L 296 306 L 296 307 L 296 308 L 296 309 L 296 310 L 296 311 L 296 312 L 296 313 L 296 314 L 296 315 L 296 316 L 296 317 L 296 318 L 296 319 L 296 320 L 296 321 L 296 322 L 296 323 L 296 324 L 296 325 L 296 326 L 296 327 L 296 328 L 296 329 L 296 330 L 296 331 L 297 331 L 298 331 L 299 331 L 300 331 L 301 331 L 302 331 L 303 331 L 304 331 L 305 331 L 306 331 L 307 331 L 308 331 L 309 331 L 310 331 L 311 331 L 312 331 L 313 331 L 314 331 L 315 331 L 316 331 L 317 331 L 317 330 L 317 329 L 317 328 L 317 327 L 317 326 L 317 325 L 317 324 L 317 323 L 317 322 L 317 321 L 317 320 L 317 319 L 317 318 L 317 317 L 317 316 L 317 315 L 317 314 L 317 313 L 317 312 L 317 311 L 317 310 L 317 309 L 317 308 L 317 307 L 317 306 L 317 305 L 317 304 L 317 303 L 317 302 L 317 301 L 317 300 L 317 299 L 317 298 L 317 297 L 317 296 L 317 295 L 317 294 L 317 293 L 317 292 L 317 291 L 317 290 L 317 289 L 317 288 L 317 287 L 317 286 L 317 285 L 317 284 L 317 283 L 317 282 L 317 281 L 317 280 L 317 279 L 317 278 L 317 277 L 317 276 L 317 275 L 317 274 L 317 273 L 317 272 L 317 271 L 317 270 L 317 269 L 317 268 L 317 267 L 317 266 L 317 265 L 317 264 L 317 263 L 317 262 L 317 261 L 317 260 L 317 259 L 317 258 L 317 257 L 317 256 L 317 255 L 317 254 L 317 253 L 317 252 L 317 251 L 317 250 L 317 249 L 317 248 L 317 247 L 317 246 L 317 245 L 317 244 L 317 243 L 317 242 L 317 241 L 317 240 L 317 239 L 317 238 L 317 237 L 317 236 L 317 235 L 317 234 L 317 233 L 317 232 L 317 231 L 317 230 L 317 229 L 317 228 L 317 227 L 317 226 L 317 225 L 317 224 L 317 223 L 317 222 L 317 221 L 317 220 L 317 219 L 317 218 L 317 217 L 317 216 L 317 215 L 317 214 L 317 213 L 317 212 L 317 211 L 317 210 L 317 209 L 317 208 L 317 207 L 317 206 L 317 205 L 317 204 L 317 203 L 317 202 L 317 201 L 317 200 L 317 199 L 317 198 L 317 197 L 317 196 L 317 195 L 317 194 L 317 193 L 317 192 L 317 191 L 317 190 L 317 189 L 317 188 L 317 187 L 317 186 L 317 185 L 317 184 L 316 184 L 315 184 L 314 184 L 313 184 L 312 184 L 311 184 L 310 184 L 309 184 L 308 184 L 307 184 L 306 184 L 305 184 L 304 184 L 303 184 L 302 184 L 301 184 L 300 184 L 299 184 L 298 184 L 297 184 Z M 130 184 L 129 185 L 129 186 L 128 187 L 127 188 L 126 189 L 125 190 L 124 191 L 123 192 L 122 193 L 121 194 L 120 195 L 119 196 L 118 197 L 117 198 L 116 199 L 115 200 L 114 201 L 113 202 L 112 203 L 111 204 L 110 205 L 109 206 L 108 207 L 107 208 L 106 209 L 105 210 L 104 211 L 103 212 L 102 213 L 102 214 L 102 215 L 102 216 L 102 217 L 102 218 L 102 219 L 102 220 L 102 221 L 102 222 L 102 223 L 102 224 L 102 225 L 102 226 L 102 227 L 102 228 L 102 229 L 102 230 L 102 231 L 102 232 L 102 233 L 102 234 L 102 235 L 102 236 L 102 237 L 102 238 L 102 239 L 102 240 L 102 241 L 102 242 L 102 243 L 102 244 L 102 245 L 102 246 L 102 247 L 102 248 L 102 249 L 102 250 L 102 251 L 102 252 L 102 253 L 102 254 L 102 255 L 102 256 L 102 257 L 102 258 L 102 259 L 102 260 L 102 261 L 102 262 L 102 263 L 102 264 L 102 265 L 102 266 L 102 267 L 102 268 L 102 269 L 102 270 L 102 271 L 102 272 L 102 273 L 102 274 L 102 275 L 102 276 L 102 277 L 102 278 L 102 279 L 102 280 L 102 281 L 102 282 L 102 283 L 102 284 L 102 285 L 102 286 L 102 287 L 102 288 L 102 289 L 102 290 L 102 291 L 102 292 L 102 293 L 102 294 L 102 295 L 102 296 L 102 297 L 102 298 L 102 299 L 102 300 L 102 301 L 102 302 L 102 303 L 102 304 L 102 305 L 102 306 L 102 307 L 102 308 L 102 309 L 102 310 L 102 311 L 102 312 L 102 313 L 102 314 L 102 315 L 102 316 L 102 317 L 102 318 L 102 319 L 102 320 L 102 321 L 102 322 L 102 323 L 102 324 L 102 325 L 102 326 L 102 327 L 102 328 L 102 329 L 102 330 L 102 331 L 103 331 L 104 331 L 105 331 L 106 331 L 107 331 L 108 331 L 109 331 L 110 331 L 111 331 L 112 331 L 113 331 L 114 331 L 115 331 L 116 331 L 117 331 L 118 331 L 119 331 L 120 331 L 121 331 L 122 331 L 123 331 L 123 330 L 123 329 L 123 328 L 123 327 L 123 326 L 123 325 L 123 324 L 123 323 L 123 322 L 123 321 L 123 320 L 123 319 L 123 318 L 123 317 L 123 316 L 123 315 L 123 314 L 123 313 L 123 312 L 123 311 L 123 310 L 123 309 L 123 308 L 123 307 L 123 306 L 123 305 L 123 304 L 123 303 L 123 302 L 123 301 L 123 300 L 123 299 L 123 298 L 123 297 L 123 296 L 123 295 L 123 294 L 123 293 L 123 292 L 123 291 L 123 290 L 123 289 L 123 288 L 123 287 L 123 286 L 123 285 L 123 284 L 123 283 L 123 282 L 123 281 L 123 280 L 123 279 L 123 278 L 123 277 L 123 276 L 123 275 L 123 274 L 123 273 L 123 272 L 123 271 L 123 270 L 123 269 L 123 268 L 123 267 L 123 266 L 123 265 L 123 264 L 123 263 L 123 262 L 123 261 L 123 260 L 123 259 L 123 258 L 123 257 L 123 256 L 123 255 L 123 254 L 123 253 L 123 252 L 123 251 L 123 250 L 123 249 L 123 248 L 123 247 L 123 246 L 123 245 L 123 244 L 123 243 L 123 242 L 123 241 L 123 240 L 123 239 L 123 238 L 123 237 L 123 236 L 123 235 L 123 234 L 123 233 L 123 232 L 123 231 L 123 230 L 123 229 L 123 228 L 123 227 L 123 226 L 123 225 L 123 224 L 123 223 L 123 222 L 123 221 L 123 220 L 123 219 L 123 218 L 123 217 L 123 216 L 123 215 L 123 214 L 123 213 L 123 212 L 123 211 L 123 210 L 123 209 L 123 208 L 123 207 L 123 206 L 123 205 L 123 204 L 124 203 L 125 203 L 126 203 L 127 203 L 128 203 L 129 203 L 130 203 L 131 203 L 132 203 L 133 203 L 134 203 L 135 203 L 136 203 L 137 203 L 138 203 L 139 203 L 140 203 L 141 203 L 142 203 L 143 203 L 144 203 L 145 203 L 146 203 L 147 203 L 148 203 L 149 203 L 150 203 L 151 203 L 152 203 L 153 203 L 154 203 L 155 203 L 156 203 L 157 203 L 158 203 L 159 203 L 160 203 L 161 203 L 162 203 L 163 203 L 164 203 L 165 203 L 166 203 L 167 203 L 168 203 L 169 203 L 170 203 L 171 203 L 172 203 L 173 203 L 174 203 L 175 203 L 176 203 L 176 202 L 176 201 L 176 200 L 176 199 L 176 198 L 176 197 L 176 196 L 176 195 L 176 194 L 176 193 L 176 192 L 176 191 L 176 190 L 176 189 L 176 188 L 176 187 L 176 186 L 176 185 L 176 184 L 175 184 L 174 184 L 173 184 L 172 184 L 171 184 L 170 184 L 169 184 L 168 184 L 167 184 L 166 184 L 165 184 L 164 184 L 163 184 L 162 184 L 161 184 L 160 184 L 159 184 L 158 184 L 157 184 L 156 184 L 155 184 L 154 184 L 153 184 L 152 184 L 151 184 L 150 184 L 149 184 L 148 184 L 147 184 L 146 184 L 145 184 L 144 184 L 143 184 L 142 184 L 141 184 L 140 184 L 139 184 L 138 184 L 137 184 L 136 184 L 135 184 L 134 184 L 133 184 L 132 184 L 131 184 Z M 49 184 L 49 185 L 49 186 L 49 187 L 49 188 L 49 189 L 49 190 L 49 191 L 49 192 L 49 193 L 49 194 L 49 195 L 49 196 L 49 197 L 49 198 L 49 199 L 49 200 L 49 201 L 49 202 L 49 203 L 50 203 L 51 203 L 52 203 L 53 203 L 54 203 L 55 203 L 56 203 L 57 203 L 58 203 L 59 203 L 60 203 L 61 203 L 62 203 L 63 203 L 64 203 L 65 203 L 66 203 L 67 203 L 68 203 L 69 203 L 70 203 L 71 203 L 72 203 L 73 203 L 74 203 L 75 203 L 76 203 L 77 203 L 78 203 L 79 203 L 80 203 L 81 203 L 82 203 L 83 203 L 84 203 L 85 203 L 86 203 L 87 203 L 88 203 L 89 203 L 90 203 L 91 203 L 92 203 L 93 203 L 94 203 L 95 203 L 96 203 L 97 203 L 98 202 L 99 202 L 100 201 L 101 200 L 102 199 L 103 198 L 104 197 L 105 196 L 106 195 L 107 194 L 108 193 L 109 192 L 109 191 L 110 190 L 111 190 L 111 189 L 112 188 L 113 188 L 113 187 L 114 186 L 115 185 L 116 184 L 115 184 L 114 184 L 113 184 L 112 184 L 111 184 L 110 184 L 109 184 L 108 184 L 107 184 L 106 184 L 105 184 L 104 184 L 103 184 L 102 184 L 101 184 L 100 184 L 99 184 L 98 184 L 97 184 L 96 184 L 95 184 L 94 184 L 93 184 L 92 184 L 91 184 L 90 184 L 89 184 L 88 184 L 87 184 L 86 184 L 85 184 L 84 184 L 83 184 L 82 184 L 81 184 L 80 184 L 79 184 L 78 184 L 77 184 L 76 184 L 75 184 L 74 184 L 73 184 L 72 184 L 71 184 L 70 184 L 69 184 L 68 184 L 67 184 L 66 184 L 65 184 L 64 184 L 63 184 L 62 184 L 61 184 L 60 184 L 59 184 L 58 184 L 57 184 L 56 184 L 55 184 L 54 184 L 53 184 L 52 184 L 51 184 L 50 184 Z M 448 183 L 447 184 L 446 184 L 445 184 L 444 184 L 443 184 L 442 184 L 441 184 L 440 184 L 439 184 L 438 184 L 437 184 L 436 184 L 435 184 L 434 184 L 433 184 L 432 184 L 431 184 L 430 184 L 429 184 L 428 184 L 427 184 L 426 184 L 425 184 L 424 184 L 423 184 L 422 184 L 421 184 L 420 184 L 419 184 L 418 184 L 417 184 L 416 184 L 415 184 L 414 184 L 413 184 L 412 184 L 411 184 L 410 184 L 409 184 L 408 184 L 407 184 L 406 184 L 405 184 L 404 184 L 403 184 L 402 184 L 401 184 L 400 184 L 399 184 L 398 184 L 397 184 L 396 184 L 395 184 L 394 184 L 393 184 L 392 184 L 391 184 L 390 184 L 389 184 L 388 184 L 387 184 L 386 184 L 385 184 L 384 184 L 383 184 L 382 184 L 381 184 L 380 184 L 379 184 L 378 184 L 377 184 L 376 184 L 375 184 L 374 184 L 373 184 L 372 184 L 371 184 L 370 184 L 369 184 L 368 184 L 367 184 L 366 184 L 365 184 L 364 184 L 363 184 L 362 184 L 361 184 L 360 184 L 359 184 L 358 184 L 357 184 L 356 184 L 355 184 L 354 184 L 353 184 L 352 184 L 351 184 L 350 184 L 349 184 L 348 184 L 347 184 L 346 184 L 345 184 L 345 185 L 345 186 L 345 187 L 345 188 L 345 189 L 345 190 L 345 191 L 345 192 L 345 193 L 345 194 L 345 195 L 345 196 L 345 197 L 345 198 L 345 199 L 345 200 L 345 201 L 345 202 L 345 203 L 345 204 L 345 205 L 345 206 L 345 207 L 345 208 L 345 209 L 345 210 L 345 211 L 345 212 L 345 213 L 345 214 L 345 215 L 345 216 L 345 217 L 345 218 L 345 219 L 345 220 L 345 221 L 345 222 L 345 223 L 345 224 L 345 225 L 345 226 L 345 227 L 345 228 L 345 229 L 345 230 L 345 231 L 345 232 L 345 233 L 345 234 L 345 235 L 345 236 L 345 237 L 345 238 L 345 239 L 345 240 L 345 241 L 345 242 L 345 243 L 345 244 L 345 245 L 345 246 L 345 247 L 345 248 L 345 249 L 345 250 L 345 251 L 346 251 L 347 250 L 348 249 L 349 248 L 350 247 L 351 246 L 352 245 L 353 244 L 354 243 L 355 242 L 356 241 L 357 240 L 358 239 L 359 238 L 360 237 L 361 236 L 362 235 L 363 234 L 364 233 L 365 232 L 365 231 L 366 230 L 366 229 L 366 228 L 366 227 L 366 226 L 366 225 L 366 224 L 366 223 L 366 222 L 366 221 L 366 220 L 366 219 L 366 218 L 366 217 L 366 216 L 366 215 L 366 214 L 366 213 L 366 212 L 366 211 L 366 210 L 366 209 L 366 208 L 366 207 L 366 206 L 366 205 L 366 204 L 367 203 L 368 203 L 369 203 L 370 203 L 371 203 L 372 203 L 373 203 L 374 203 L 375 203 L 376 203 L 377 203 L 378 203 L 379 203 L 380 203 L 381 203 L 382 203 L 383 203 L 384 203 L 385 203 L 386 203 L 387 203 L 388 203 L 389 203 L 390 203 L 391 203 L 392 203 L 393 203 L 394 203 L 395 203 L 396 203 L 397 203 L 398 203 L 399 203 L 400 203 L 401 203 L 402 203 L 403 203 L 404 203 L 405 203 L 406 203 L 407 203 L 408 203 L 409 203 L 410 203 L 411 203 L 412 203 L 413 203 L 414 203 L 415 203 L 416 203 L 417 203 L 418 203 L 419 203 L 420 203 L 421 203 L 422 203 L 423 203 L 424 203 L 425 203 L 426 203 L 427 203 L 428 203 L 429 203 L 430 203 L 431 203 L 432 203 L 433 203 L 434 203 L 435 203 L 436 203 L 437 203 L 438 203 L 439 203 L 440 203 L 441 203 L 442 203 L 443 203 L 444 203 L 445 203 L 446 203 L 447 203 L 448 203 L 449 203 L 450 203 L 450 202 L 450 201 L 450 200 L 450 199 L 450 198 L 450 197 L 450 196 L 450 195 L 450 194 L 450 193 L 450 192 L 450 191 L 450 190 L 450 189 L 450 188 L 450 187 L 450 186 L 450 185 L 450 184 L 449 183 Z M 216 183 L 215 184 L 214 184 L 213 184 L 212 184 L 211 184 L 210 184 L 209 184 L 208 184 L 207 184 L 206 184 L 205 184 L 204 184 L 203 184 L 202 184 L 201 184 L 200 184 L 199 184 L 198 184 L 197 184 L 196 184 L 196 185 L 196 186 L 196 187 L 196 188 L 196 189 L 196 190 L 196 191 L 196 192 L 196 193 L 196 194 L 196 195 L 196 196 L 196 197 L 196 198 L 196 199 L 196 200 L 196 201 L 196 202 L 196 203 L 196 204 L 196 205 L 196 206 L 196 207 L 196 208 L 196 209 L 196 210 L 196 211 L 196 212 L 196 213 L 196 214 L 196 215 L 196 216 L 196 217 L 196 218 L 196 219 L 196 220 L 196 221 L 196 222 L 196 223 L 196 224 L 196 225 L 196 226 L 196 227 L 196 228 L 196 229 L 196 230 L 196 231 L 196 232 L 196 233 L 196 234 L 196 235 L 196 236 L 196 237 L 196 238 L 196 239 L 196 240 L 196 241 L 196 242 L 196 243 L 196 244 L 196 245 L 196 246 L 196 247 L 196 248 L 196 249 L 196 250 L 196 251 L 196 252 L 196 253 L 196 254 L 196 255 L 196 256 L 196 257 L 196 258 L 196 259 L 196 260 L 196 261 L 196 262 L 196 263 L 196 264 L 197 264 L 198 263 L 199 263 L 200 262 L 201 261 L 202 260 L 202 259 L 203 258 L 204 258 L 205 257 L 206 256 L 207 255 L 207 254 L 208 253 L 209 253 L 209 252 L 210 251 L 211 251 L 212 250 L 213 249 L 214 248 L 215 247 L 216 246 L 216 245 L 217 244 L 218 243 L 218 242 L 218 241 L 218 240 L 218 239 L 218 238 L 218 237 L 218 236 L 218 235 L 218 234 L 218 233 L 218 232 L 218 231 L 218 230 L 218 229 L 218 228 L 218 227 L 218 226 L 218 225 L 218 224 L 218 223 L 218 222 L 218 221 L 218 220 L 218 219 L 218 218 L 218 217 L 218 216 L 218 215 L 218 214 L 218 213 L 218 212 L 218 211 L 218 210 L 218 209 L 218 208 L 218 207 L 218 206 L 218 205 L 218 204 L 218 203 L 218 202 L 218 201 L 218 200 L 218 199 L 218 198 L 218 197 L 218 196 L 218 195 L 218 194 L 218 193 L 218 192 L 218 191 L 218 190 L 218 189 L 218 188 L 218 187 L 218 186 L 218 185 L 218 184 L 217 184 Z M 703 171 L 703 172 L 703 173 L 703 174 L 703 175 L 703 176 L 703 177 L 703 178 L 703 179 L 703 180 L 703 181 L 703 182 L 703 183 L 703 184 L 703 185 L 703 186 L 703 187 L 703 188 L 703 189 L 703 190 L 703 191 L 703 192 L 703 193 L 703 194 L 703 195 L 703 196 L 703 197 L 703 198 L 703 199 L 703 200 L 703 201 L 703 202 L 703 203 L 703 204 L 703 205 L 703 206 L 703 207 L 703 208 L 703 209 L 703 210 L 703 211 L 703 212 L 703 213 L 703 214 L 703 215 L 703 216 L 703 217 L 703 218 L 703 219 L 704 218 L 705 217 L 706 216 L 707 216 L 708 215 L 709 214 L 710 213 L 711 212 L 712 212 L 713 211 L 714 210 L 715 209 L 716 208 L 717 208 L 718 207 L 719 206 L 720 205 L 721 205 L 722 204 L 723 203 L 724 202 L 725 201 L 726 201 L 727 200 L 728 199 L 729 198 L 730 197 L 731 197 L 732 196 L 733 195 L 734 194 L 735 194 L 736 193 L 737 192 L 738 191 L 739 190 L 740 190 L 741 189 L 742 188 L 743 187 L 744 186 L 745 186 L 746 185 L 745 185 L 744 184 L 743 184 L 742 184 L 741 183 L 740 183 L 739 183 L 738 182 L 737 182 L 736 182 L 735 181 L 734 181 L 733 181 L 732 180 L 731 180 L 730 180 L 729 179 L 728 179 L 727 179 L 726 178 L 725 178 L 724 178 L 723 177 L 722 177 L 721 177 L 720 176 L 719 176 L 718 176 L 717 175 L 716 175 L 715 175 L 714 174 L 713 174 L 712 174 L 711 174 L 710 173 L 709 173 L 708 173 L 707 172 L 706 172 L 705 171 L 704 171 Z M 693 171 L 692 172 L 691 172 L 690 172 L 689 173 L 688 173 L 687 174 L 686 174 L 685 174 L 684 174 L 683 175 L 682 175 L 681 175 L 680 176 L 679 176 L 678 176 L 677 177 L 676 177 L 675 177 L 674 178 L 673 178 L 672 178 L 671 179 L 670 179 L 669 179 L 668 180 L 667 180 L 666 181 L 665 181 L 664 181 L 663 181 L 662 182 L 661 182 L 660 182 L 659 183 L 658 183 L 657 183 L 656 184 L 655 184 L 654 184 L 653 185 L 652 185 L 653 186 L 654 187 L 655 188 L 656 188 L 657 189 L 658 190 L 659 191 L 660 192 L 661 192 L 662 193 L 663 194 L 664 195 L 665 196 L 666 196 L 667 197 L 668 198 L 669 199 L 670 200 L 671 200 L 672 201 L 673 202 L 674 203 L 675 204 L 676 204 L 677 205 L 678 206 L 679 207 L 680 207 L 681 208 L 682 209 L 683 210 L 684 211 L 685 211 L 686 212 L 687 213 L 688 214 L 689 215 L 690 215 L 691 216 L 692 217 L 693 218 L 694 219 L 695 219 L 695 218 L 695 217 L 695 216 L 695 215 L 695 214 L 695 213 L 695 212 L 695 211 L 695 210 L 695 209 L 695 208 L 695 207 L 695 206 L 695 205 L 695 204 L 695 203 L 695 202 L 695 201 L 695 200 L 695 199 L 695 198 L 695 197 L 695 196 L 695 195 L 695 194 L 695 193 L 695 192 L 695 191 L 695 190 L 695 189 L 695 188 L 695 187 L 695 186 L 695 185 L 695 184 L 695 183 L 695 182 L 695 181 L 695 180 L 695 179 L 695 178 L 695 177 L 695 176 L 695 175 L 695 174 L 695 173 L 695 172 L 695 171 L 694 171 Z M 798 153 L 797 154 L 796 155 L 795 156 L 794 156 L 793 157 L 792 158 L 791 159 L 790 160 L 789 160 L 788 161 L 787 162 L 786 163 L 785 163 L 784 164 L 783 165 L 782 166 L 781 167 L 780 167 L 779 168 L 778 169 L 777 170 L 776 171 L 775 171 L 774 172 L 773 173 L 772 173 L 771 174 L 770 175 L 769 176 L 768 177 L 767 177 L 766 178 L 765 179 L 764 180 L 763 181 L 762 181 L 761 182 L 760 183 L 759 184 L 758 185 L 757 185 L 756 186 L 755 187 L 754 188 L 754 189 L 754 190 L 754 191 L 754 192 L 754 193 L 754 194 L 754 195 L 754 196 L 754 197 L 754 198 L 754 199 L 755 200 L 755 201 L 755 202 L 755 203 L 755 204 L 755 205 L 755 206 L 755 207 L 755 208 L 755 209 L 755 210 L 755 211 L 755 212 L 755 213 L 755 214 L 755 215 L 755 216 L 756 217 L 756 218 L 756 219 L 756 220 L 756 221 L 756 222 L 756 223 L 756 224 L 756 225 L 756 226 L 756 227 L 756 228 L 756 229 L 756 230 L 756 231 L 756 232 L 756 233 L 757 234 L 757 235 L 757 236 L 757 237 L 757 238 L 757 239 L 757 240 L 757 241 L 757 242 L 757 243 L 757 244 L 757 245 L 757 246 L 757 247 L 757 248 L 757 249 L 757 250 L 757 251 L 757 252 L 757 253 L 757 254 L 757 255 L 758 256 L 758 257 L 759 256 L 760 255 L 761 255 L 762 254 L 763 253 L 764 253 L 765 252 L 766 251 L 767 250 L 768 249 L 769 249 L 770 248 L 771 247 L 772 246 L 773 246 L 774 245 L 775 244 L 776 243 L 777 243 L 778 242 L 779 241 L 780 240 L 781 240 L 782 239 L 783 238 L 784 237 L 785 237 L 786 236 L 787 235 L 788 234 L 789 234 L 790 233 L 791 232 L 792 231 L 793 230 L 794 230 L 795 229 L 796 228 L 797 227 L 797 226 L 797 225 L 797 224 L 797 223 L 797 222 L 797 221 L 797 220 L 797 219 L 797 218 L 797 217 L 797 216 L 797 215 L 797 214 L 797 213 L 797 212 L 797 211 L 797 210 L 797 209 L 797 208 L 797 207 L 797 206 L 797 205 L 798 204 L 798 203 L 798 202 L 798 201 L 798 200 L 798 199 L 798 198 L 798 197 L 798 196 L 798 195 L 798 194 L 798 193 L 798 192 L 798 191 L 798 190 L 798 189 L 798 188 L 798 187 L 798 186 L 798 185 L 798 184 L 798 183 L 798 182 L 798 181 L 798 180 L 798 179 L 798 178 L 798 177 L 798 176 L 798 175 L 798 174 L 798 173 L 798 172 L 798 171 L 798 170 L 798 169 L 798 168 L 798 167 L 798 166 L 798 165 L 798 164 L 798 163 L 799 162 L 799 161 L 799 160 L 799 159 L 799 158 L 799 157 L 799 156 L 799 155 L 799 154 L 799 153 Z M 598 153 L 598 154 L 598 155 L 598 156 L 599 157 L 598 158 L 599 159 L 599 160 L 599 161 L 599 162 L 599 163 L 599 164 L 599 165 L 599 166 L 599 167 L 599 168 L 599 169 L 599 170 L 599 171 L 599 172 L 599 173 L 599 174 L 599 175 L 599 176 L 599 177 L 599 178 L 599 179 L 599 180 L 599 181 L 599 182 L 599 183 L 599 184 L 599 185 L 599 186 L 599 187 L 599 188 L 599 189 L 599 190 L 599 191 L 599 192 L 599 193 L 599 194 L 599 195 L 600 196 L 600 197 L 600 198 L 600 199 L 600 200 L 600 201 L 600 202 L 600 203 L 600 204 L 600 205 L 600 206 L 600 207 L 600 208 L 600 209 L 600 210 L 600 211 L 600 212 L 600 213 L 600 214 L 600 215 L 600 216 L 600 217 L 600 218 L 600 219 L 600 220 L 600 221 L 600 222 L 600 223 L 600 224 L 600 225 L 600 226 L 600 227 L 601 228 L 602 229 L 603 229 L 604 230 L 605 231 L 606 232 L 607 232 L 608 233 L 609 234 L 610 235 L 611 235 L 612 236 L 613 237 L 614 238 L 615 238 L 616 239 L 617 240 L 618 241 L 619 241 L 620 242 L 621 243 L 622 244 L 623 244 L 624 245 L 625 246 L 626 247 L 627 248 L 628 248 L 629 249 L 630 250 L 631 251 L 632 251 L 633 252 L 634 253 L 635 254 L 636 254 L 637 255 L 638 256 L 639 257 L 640 256 L 640 255 L 640 254 L 640 253 L 640 252 L 640 251 L 640 250 L 640 249 L 640 248 L 640 247 L 640 246 L 640 245 L 640 244 L 640 243 L 640 242 L 640 241 L 640 240 L 641 239 L 641 238 L 641 237 L 641 236 L 641 235 L 641 234 L 641 233 L 641 232 L 641 231 L 641 230 L 641 229 L 641 228 L 641 227 L 641 226 L 641 225 L 642 224 L 642 223 L 642 222 L 642 221 L 642 220 L 642 219 L 642 218 L 642 217 L 642 216 L 642 215 L 642 214 L 642 213 L 642 212 L 642 211 L 642 210 L 642 209 L 642 208 L 642 207 L 642 206 L 643 205 L 643 204 L 643 203 L 643 202 L 643 201 L 643 200 L 643 199 L 643 198 L 643 197 L 643 196 L 643 195 L 643 194 L 644 193 L 644 192 L 644 191 L 644 190 L 644 189 L 643 188 L 642 187 L 641 186 L 640 185 L 639 184 L 638 184 L 637 183 L 636 182 L 635 181 L 634 181 L 633 180 L 632 179 L 631 178 L 630 177 L 629 176 L 628 176 L 627 175 L 626 174 L 625 174 L 624 173 L 623 172 L 622 171 L 621 170 L 620 170 L 619 169 L 618 168 L 617 167 L 616 166 L 615 166 L 614 165 L 613 164 L 612 163 L 611 163 L 610 162 L 609 161 L 608 160 L 607 159 L 606 159 L 605 158 L 604 157 L 603 156 L 602 155 L 601 155 L 600 154 L 599 153 Z M 737 122 L 736 123 L 736 124 L 735 125 L 734 126 L 734 127 L 733 128 L 732 129 L 731 130 L 731 131 L 730 132 L 729 133 L 729 134 L 728 135 L 727 136 L 727 137 L 726 138 L 725 139 L 724 140 L 724 141 L 723 142 L 722 143 L 722 144 L 721 145 L 720 146 L 719 147 L 719 148 L 718 149 L 717 150 L 717 151 L 716 152 L 715 153 L 714 154 L 714 155 L 713 156 L 712 157 L 712 158 L 711 159 L 710 160 L 710 161 L 709 162 L 708 163 L 707 164 L 707 165 L 706 166 L 706 167 L 707 167 L 708 168 L 709 168 L 710 168 L 711 169 L 712 169 L 713 169 L 714 170 L 715 170 L 716 170 L 717 171 L 718 171 L 719 171 L 720 172 L 721 172 L 722 172 L 723 173 L 724 173 L 725 173 L 726 174 L 727 174 L 728 174 L 729 175 L 730 175 L 731 175 L 732 175 L 733 176 L 734 176 L 735 177 L 736 177 L 737 177 L 738 178 L 739 178 L 740 178 L 741 178 L 742 179 L 743 179 L 744 180 L 745 180 L 746 180 L 747 180 L 748 181 L 749 181 L 750 181 L 751 181 L 752 180 L 753 179 L 754 179 L 755 178 L 756 177 L 757 176 L 758 175 L 759 175 L 760 174 L 761 173 L 762 172 L 763 172 L 764 171 L 765 170 L 766 169 L 767 168 L 768 167 L 769 167 L 770 166 L 771 165 L 772 164 L 773 164 L 774 163 L 775 162 L 776 161 L 777 160 L 778 160 L 779 159 L 780 158 L 781 157 L 782 157 L 783 156 L 784 155 L 785 154 L 786 153 L 787 153 L 788 152 L 789 151 L 790 150 L 791 149 L 792 149 L 793 148 L 794 147 L 795 146 L 794 145 L 793 145 L 792 145 L 791 144 L 790 144 L 789 143 L 788 143 L 787 143 L 786 142 L 785 142 L 784 141 L 783 141 L 782 140 L 781 140 L 780 140 L 779 139 L 778 139 L 777 138 L 776 138 L 775 138 L 774 137 L 773 137 L 772 136 L 771 136 L 770 136 L 769 135 L 768 135 L 767 134 L 766 134 L 765 133 L 764 133 L 763 133 L 762 132 L 761 132 L 760 131 L 759 131 L 758 131 L 757 130 L 756 130 L 755 129 L 754 129 L 753 129 L 752 128 L 751 128 L 750 127 L 749 127 L 748 126 L 747 126 L 746 126 L 745 125 L 744 125 L 743 124 L 742 124 L 741 124 L 740 123 L 739 123 L 738 122 Z M 659 122 L 658 123 L 657 123 L 656 124 L 655 124 L 654 125 L 653 125 L 652 125 L 651 126 L 650 126 L 649 127 L 648 127 L 647 127 L 646 128 L 645 128 L 644 129 L 643 129 L 642 130 L 641 130 L 640 130 L 639 131 L 638 131 L 637 132 L 636 132 L 635 132 L 634 133 L 633 133 L 632 134 L 631 134 L 630 135 L 629 135 L 628 135 L 627 136 L 626 136 L 625 137 L 624 137 L 623 137 L 622 138 L 621 138 L 620 139 L 619 139 L 618 140 L 617 140 L 616 140 L 615 141 L 614 141 L 613 142 L 612 142 L 611 143 L 610 143 L 609 143 L 608 144 L 607 144 L 606 145 L 605 145 L 604 146 L 603 146 L 603 147 L 604 148 L 605 149 L 606 149 L 607 150 L 608 151 L 609 152 L 610 153 L 611 153 L 612 154 L 613 155 L 614 156 L 615 156 L 616 157 L 617 158 L 618 159 L 619 160 L 620 160 L 621 161 L 622 162 L 623 163 L 624 163 L 625 164 L 626 165 L 627 166 L 628 167 L 629 167 L 630 168 L 631 169 L 632 170 L 633 171 L 634 171 L 635 172 L 636 173 L 637 174 L 638 174 L 639 175 L 640 176 L 641 177 L 642 178 L 643 178 L 644 179 L 645 180 L 646 181 L 647 181 L 648 181 L 649 181 L 650 181 L 651 180 L 652 180 L 653 180 L 654 179 L 655 179 L 656 179 L 657 178 L 658 178 L 659 178 L 660 177 L 661 177 L 662 177 L 663 176 L 664 176 L 665 176 L 666 175 L 667 175 L 668 175 L 669 174 L 670 174 L 671 174 L 672 173 L 673 173 L 674 173 L 675 172 L 676 172 L 677 172 L 678 171 L 679 171 L 680 171 L 681 170 L 682 170 L 683 170 L 684 169 L 685 169 L 686 169 L 687 168 L 688 168 L 689 168 L 690 167 L 691 167 L 692 167 L 691 166 L 691 165 L 690 164 L 689 163 L 688 162 L 688 161 L 687 160 L 686 159 L 686 158 L 685 157 L 684 156 L 684 155 L 683 154 L 682 153 L 682 152 L 681 151 L 680 150 L 679 149 L 679 148 L 678 147 L 677 146 L 677 145 L 676 144 L 675 143 L 674 142 L 674 141 L 673 140 L 672 139 L 672 138 L 671 137 L 670 136 L 670 135 L 669 134 L 668 133 L 667 132 L 667 131 L 666 130 L 665 129 L 665 128 L 664 127 L 663 126 L 662 125 L 662 124 L 661 123 L 660 122 Z M 886 89 L 885 90 L 884 90 L 883 91 L 882 92 L 881 92 L 880 93 L 879 94 L 878 95 L 877 95 L 876 96 L 875 97 L 874 98 L 873 98 L 872 99 L 871 100 L 870 101 L 869 101 L 868 102 L 867 103 L 866 103 L 865 104 L 864 105 L 863 106 L 862 106 L 861 107 L 860 108 L 859 108 L 858 109 L 857 110 L 856 111 L 855 111 L 854 112 L 853 113 L 852 114 L 851 114 L 850 115 L 849 116 L 848 117 L 847 117 L 846 118 L 845 119 L 844 119 L 843 120 L 842 121 L 841 122 L 840 122 L 839 123 L 838 124 L 837 125 L 836 125 L 835 126 L 834 127 L 833 127 L 832 128 L 831 129 L 830 130 L 829 130 L 828 131 L 827 132 L 826 133 L 825 133 L 824 134 L 823 135 L 822 136 L 821 136 L 820 137 L 819 138 L 818 138 L 817 139 L 816 140 L 815 141 L 814 141 L 813 142 L 812 143 L 811 144 L 810 144 L 809 145 L 808 146 L 807 147 L 807 148 L 807 149 L 807 150 L 807 151 L 807 152 L 807 153 L 807 154 L 807 155 L 807 156 L 807 157 L 807 158 L 807 159 L 807 160 L 807 161 L 806 162 L 806 163 L 806 164 L 806 165 L 806 166 L 806 167 L 806 168 L 806 169 L 806 170 L 806 171 L 806 172 L 806 173 L 806 174 L 806 175 L 806 176 L 806 177 L 806 178 L 806 179 L 806 180 L 806 181 L 806 182 L 806 183 L 806 184 L 806 185 L 806 186 L 806 187 L 806 188 L 806 189 L 806 190 L 806 191 L 806 192 L 806 193 L 806 194 L 806 195 L 806 196 L 806 197 L 806 198 L 806 199 L 806 200 L 806 201 L 806 202 L 806 203 L 806 204 L 806 205 L 806 206 L 806 207 L 806 208 L 806 209 L 806 210 L 805 211 L 805 212 L 805 213 L 805 214 L 805 215 L 805 216 L 805 217 L 805 218 L 805 219 L 805 220 L 805 221 L 805 222 L 805 223 L 805 224 L 805 225 L 805 226 L 805 227 L 805 228 L 805 229 L 805 230 L 805 231 L 805 232 L 805 233 L 805 234 L 805 235 L 805 236 L 805 237 L 805 238 L 805 239 L 806 239 L 807 238 L 808 237 L 809 237 L 810 236 L 811 235 L 812 234 L 813 234 L 814 233 L 815 232 L 816 231 L 817 231 L 818 230 L 819 229 L 820 229 L 821 228 L 822 227 L 823 226 L 824 226 L 825 225 L 826 224 L 827 223 L 828 223 L 829 222 L 830 221 L 831 221 L 832 220 L 833 219 L 834 218 L 835 218 L 836 217 L 837 216 L 838 215 L 839 215 L 840 214 L 841 213 L 842 213 L 843 212 L 844 211 L 845 210 L 846 210 L 847 209 L 848 208 L 849 207 L 850 207 L 851 206 L 852 205 L 853 205 L 854 204 L 855 203 L 856 202 L 857 202 L 858 201 L 859 200 L 860 200 L 861 199 L 862 198 L 863 197 L 864 197 L 865 196 L 866 195 L 867 194 L 868 194 L 869 193 L 870 192 L 871 191 L 872 191 L 873 190 L 874 189 L 875 188 L 876 187 L 877 186 L 877 185 L 877 184 L 878 183 L 878 182 L 879 181 L 879 180 L 880 179 L 880 178 L 881 177 L 881 176 L 882 175 L 882 174 L 882 173 L 883 172 L 883 171 L 884 170 L 884 169 L 885 168 L 885 167 L 885 166 L 886 165 L 886 164 L 886 163 L 887 162 L 887 161 L 887 160 L 887 159 L 887 158 L 887 157 L 887 156 L 887 155 L 887 154 L 887 153 L 887 152 L 887 151 L 887 150 L 887 149 L 887 148 L 887 147 L 887 146 L 887 145 L 887 144 L 887 143 L 887 142 L 887 141 L 887 140 L 887 139 L 887 138 L 887 137 L 887 136 L 887 135 L 887 134 L 887 133 L 887 132 L 887 131 L 887 130 L 887 129 L 887 128 L 887 127 L 887 126 L 887 125 L 887 124 L 887 123 L 887 122 L 887 121 L 887 120 L 887 119 L 887 118 L 887 117 L 887 116 L 887 115 L 887 114 L 887 113 L 886 112 L 886 111 L 886 110 L 886 109 L 886 108 L 886 107 L 886 106 L 886 105 L 886 104 L 886 103 L 886 102 L 886 101 L 886 100 L 886 99 L 886 98 L 886 97 L 886 96 L 886 95 L 886 94 L 886 93 L 886 92 L 886 91 L 886 90 Z M 512 89 L 511 90 L 511 91 L 511 92 L 511 93 L 511 94 L 511 95 L 511 96 L 511 97 L 511 98 L 511 99 L 511 100 L 511 101 L 511 102 L 511 103 L 511 104 L 511 105 L 511 106 L 511 107 L 511 108 L 511 109 L 511 110 L 511 111 L 511 112 L 511 113 L 511 114 L 511 115 L 511 116 L 511 117 L 511 118 L 511 119 L 511 120 L 511 121 L 511 122 L 511 123 L 511 124 L 511 125 L 511 126 L 511 127 L 511 128 L 511 129 L 511 130 L 510 131 L 510 132 L 510 133 L 510 134 L 510 135 L 510 136 L 510 137 L 510 138 L 510 139 L 510 140 L 510 141 L 510 142 L 510 143 L 510 144 L 510 145 L 510 146 L 510 147 L 510 148 L 510 149 L 510 150 L 510 151 L 510 152 L 510 153 L 510 154 L 510 155 L 510 156 L 510 157 L 510 158 L 510 159 L 510 160 L 511 161 L 511 162 L 511 163 L 512 164 L 512 165 L 512 166 L 512 167 L 513 168 L 513 169 L 514 170 L 514 171 L 514 172 L 515 173 L 515 174 L 516 175 L 516 176 L 517 177 L 517 178 L 518 179 L 518 180 L 518 181 L 519 182 L 519 183 L 520 184 L 520 185 L 521 186 L 521 187 L 522 188 L 523 189 L 524 190 L 525 190 L 526 191 L 527 192 L 528 193 L 529 193 L 530 194 L 531 195 L 532 196 L 533 196 L 534 197 L 535 198 L 536 198 L 537 199 L 538 200 L 539 201 L 540 201 L 541 202 L 542 203 L 543 203 L 544 204 L 545 205 L 546 206 L 547 206 L 548 207 L 549 208 L 550 208 L 551 209 L 552 210 L 553 211 L 554 211 L 555 212 L 556 213 L 557 214 L 558 214 L 559 215 L 560 216 L 561 216 L 562 217 L 563 218 L 564 219 L 565 219 L 566 220 L 567 221 L 568 222 L 569 222 L 570 223 L 571 224 L 572 225 L 573 225 L 574 226 L 575 227 L 576 228 L 577 228 L 578 229 L 579 230 L 580 230 L 581 231 L 582 232 L 583 233 L 584 233 L 585 234 L 586 235 L 587 236 L 588 236 L 589 237 L 590 238 L 591 239 L 592 239 L 593 240 L 593 239 L 593 238 L 593 237 L 593 236 L 593 235 L 593 234 L 593 233 L 593 232 L 593 231 L 593 230 L 593 229 L 593 228 L 593 227 L 593 226 L 593 225 L 593 224 L 593 223 L 593 222 L 593 221 L 593 220 L 593 219 L 593 218 L 592 217 L 592 216 L 592 215 L 592 214 L 592 213 L 592 212 L 592 211 L 592 210 L 592 209 L 592 208 L 592 207 L 592 206 L 592 205 L 592 204 L 592 203 L 592 202 L 592 201 L 592 200 L 592 199 L 592 198 L 592 197 L 592 196 L 592 195 L 592 194 L 592 193 L 592 192 L 592 191 L 592 190 L 592 189 L 592 188 L 592 187 L 592 186 L 592 185 L 592 184 L 592 183 L 592 182 L 592 181 L 592 180 L 592 179 L 592 178 L 591 177 L 591 176 L 591 175 L 591 174 L 591 173 L 591 172 L 591 171 L 591 170 L 591 169 L 591 168 L 591 167 L 591 166 L 591 165 L 591 164 L 591 163 L 591 162 L 591 161 L 591 160 L 591 159 L 591 158 L 591 157 L 591 156 L 591 155 L 591 154 L 591 153 L 591 152 L 591 151 L 591 150 L 591 149 L 591 148 L 591 147 L 590 146 L 589 145 L 588 145 L 587 144 L 586 143 L 585 142 L 584 142 L 583 141 L 582 140 L 581 140 L 580 139 L 579 138 L 578 137 L 577 137 L 576 136 L 575 135 L 574 135 L 573 134 L 572 133 L 571 132 L 570 131 L 569 131 L 568 130 L 567 129 L 566 129 L 565 128 L 564 127 L 563 126 L 562 126 L 561 125 L 560 124 L 559 124 L 558 123 L 557 122 L 556 121 L 555 121 L 554 120 L 553 119 L 552 118 L 551 118 L 550 117 L 549 116 L 548 115 L 547 115 L 546 114 L 545 113 L 544 112 L 543 112 L 542 111 L 541 110 L 540 110 L 539 109 L 538 108 L 537 107 L 536 107 L 535 106 L 534 105 L 533 105 L 532 104 L 531 103 L 530 102 L 529 102 L 528 101 L 527 100 L 526 99 L 525 99 L 524 98 L 523 97 L 522 97 L 521 96 L 520 95 L 519 94 L 518 94 L 517 93 L 516 92 L 515 91 L 514 91 L 513 90 Z M 813 62 L 812 63 L 811 64 L 810 64 L 809 65 L 808 66 L 807 66 L 806 67 L 805 68 L 804 69 L 803 69 L 802 70 L 801 71 L 800 72 L 799 72 L 798 73 L 797 74 L 796 75 L 795 75 L 794 76 L 793 77 L 792 78 L 791 78 L 790 79 L 789 80 L 788 81 L 787 81 L 786 82 L 785 83 L 784 84 L 783 84 L 782 85 L 781 86 L 780 87 L 779 87 L 778 88 L 777 89 L 776 90 L 775 91 L 774 91 L 773 92 L 772 93 L 771 94 L 770 94 L 769 95 L 768 96 L 767 96 L 766 97 L 765 98 L 764 99 L 763 100 L 762 100 L 761 101 L 760 102 L 759 103 L 758 103 L 757 104 L 756 105 L 755 106 L 754 106 L 753 107 L 752 108 L 751 109 L 750 109 L 749 110 L 748 111 L 747 112 L 746 112 L 745 113 L 744 114 L 743 115 L 742 115 L 742 116 L 743 116 L 744 117 L 745 117 L 746 117 L 747 118 L 748 118 L 749 119 L 750 119 L 751 119 L 752 120 L 753 120 L 754 121 L 755 121 L 756 122 L 757 122 L 758 122 L 759 123 L 760 123 L 761 124 L 762 124 L 763 125 L 764 125 L 765 125 L 766 126 L 767 126 L 768 127 L 769 127 L 770 127 L 771 128 L 772 128 L 773 129 L 774 129 L 775 130 L 776 130 L 777 130 L 778 131 L 779 131 L 780 132 L 781 132 L 782 132 L 783 133 L 784 133 L 785 134 L 786 134 L 787 135 L 788 135 L 789 136 L 790 136 L 791 136 L 792 137 L 793 137 L 794 138 L 795 138 L 796 138 L 797 139 L 798 139 L 799 140 L 800 140 L 801 141 L 802 141 L 803 140 L 804 140 L 805 139 L 806 138 L 807 138 L 808 137 L 809 136 L 810 135 L 811 135 L 812 134 L 813 133 L 814 132 L 815 132 L 816 131 L 817 130 L 818 130 L 819 129 L 820 128 L 821 127 L 822 127 L 823 126 L 824 125 L 825 124 L 826 124 L 827 123 L 828 122 L 829 122 L 830 121 L 831 120 L 832 119 L 833 119 L 834 118 L 835 117 L 836 117 L 837 116 L 838 115 L 839 114 L 840 114 L 841 113 L 842 112 L 843 111 L 844 111 L 845 110 L 846 109 L 847 108 L 848 108 L 849 107 L 850 106 L 851 105 L 852 105 L 853 104 L 854 103 L 855 103 L 856 102 L 857 101 L 858 100 L 859 100 L 860 99 L 861 98 L 862 97 L 863 97 L 864 96 L 865 95 L 866 95 L 867 94 L 868 93 L 869 92 L 870 92 L 871 91 L 872 90 L 873 89 L 874 89 L 875 88 L 876 87 L 877 86 L 878 86 L 879 85 L 880 84 L 881 84 L 880 83 L 879 83 L 878 83 L 877 82 L 876 82 L 875 82 L 874 81 L 873 81 L 872 81 L 871 80 L 870 80 L 869 80 L 868 79 L 867 79 L 866 79 L 865 78 L 864 78 L 863 78 L 862 77 L 861 77 L 860 77 L 859 76 L 858 76 L 857 76 L 856 75 L 855 75 L 854 75 L 853 74 L 852 74 L 851 74 L 850 73 L 849 73 L 848 73 L 847 72 L 846 72 L 845 72 L 844 71 L 843 71 L 842 71 L 841 70 L 840 70 L 839 70 L 838 69 L 837 69 L 836 69 L 835 69 L 834 68 L 833 68 L 832 67 L 831 67 L 830 67 L 829 66 L 828 66 L 827 66 L 826 66 L 825 65 L 824 65 L 823 64 L 822 64 L 821 64 L 820 64 L 819 63 L 818 63 L 817 63 L 816 62 L 815 62 L 814 62 Z M 581 62 L 580 63 L 579 63 L 578 64 L 577 64 L 576 64 L 575 64 L 574 65 L 573 65 L 572 66 L 571 66 L 570 66 L 569 66 L 568 67 L 567 67 L 566 67 L 565 68 L 564 68 L 563 69 L 562 69 L 561 69 L 560 69 L 559 70 L 558 70 L 557 70 L 556 71 L 555 71 L 554 71 L 553 72 L 552 72 L 551 72 L 550 73 L 549 73 L 548 73 L 547 74 L 546 74 L 545 74 L 544 75 L 543 75 L 542 75 L 541 76 L 540 76 L 539 76 L 538 77 L 537 77 L 536 77 L 535 78 L 534 78 L 533 78 L 532 79 L 531 79 L 530 79 L 529 80 L 528 80 L 527 80 L 526 81 L 525 81 L 524 81 L 523 82 L 522 82 L 521 82 L 520 83 L 519 83 L 518 83 L 517 83 L 517 84 L 518 85 L 519 85 L 520 86 L 521 87 L 522 88 L 523 88 L 524 89 L 525 90 L 526 90 L 527 91 L 528 92 L 529 93 L 530 93 L 531 94 L 532 95 L 533 96 L 534 96 L 535 97 L 536 98 L 537 99 L 538 99 L 539 100 L 540 101 L 541 102 L 542 102 L 543 103 L 544 104 L 545 104 L 546 105 L 547 106 L 548 107 L 549 107 L 550 108 L 551 109 L 552 109 L 553 110 L 554 111 L 555 112 L 556 112 L 557 113 L 558 114 L 559 115 L 560 115 L 561 116 L 562 117 L 563 118 L 564 118 L 565 119 L 566 120 L 567 120 L 568 121 L 569 122 L 570 123 L 571 124 L 572 124 L 573 125 L 574 126 L 575 126 L 576 127 L 577 128 L 578 129 L 579 129 L 580 130 L 581 131 L 582 131 L 583 132 L 584 133 L 585 134 L 586 134 L 587 135 L 588 136 L 589 137 L 590 137 L 591 138 L 592 139 L 593 139 L 594 140 L 595 141 L 596 141 L 597 140 L 598 140 L 599 139 L 600 139 L 601 139 L 602 138 L 603 138 L 604 137 L 605 137 L 606 137 L 607 136 L 608 136 L 609 135 L 610 135 L 611 134 L 612 134 L 613 134 L 614 133 L 615 133 L 616 132 L 617 132 L 618 131 L 619 131 L 620 131 L 621 130 L 622 130 L 623 129 L 624 129 L 625 129 L 626 128 L 627 128 L 628 127 L 629 127 L 630 126 L 631 126 L 632 126 L 633 125 L 634 125 L 635 124 L 636 124 L 637 124 L 638 123 L 639 123 L 640 122 L 641 122 L 642 121 L 643 121 L 644 120 L 645 120 L 646 120 L 647 119 L 648 119 L 649 118 L 650 118 L 651 117 L 652 117 L 653 117 L 654 116 L 655 116 L 655 115 L 654 114 L 653 114 L 652 113 L 651 112 L 650 111 L 649 110 L 648 110 L 647 109 L 646 108 L 645 108 L 644 107 L 643 106 L 642 105 L 641 104 L 640 104 L 639 103 L 638 102 L 637 101 L 636 101 L 635 100 L 634 99 L 633 98 L 632 98 L 631 97 L 630 96 L 629 95 L 628 95 L 627 94 L 626 93 L 625 92 L 624 92 L 623 91 L 622 90 L 621 89 L 620 89 L 619 88 L 618 87 L 617 86 L 616 86 L 615 85 L 614 84 L 613 83 L 612 83 L 611 82 L 610 81 L 609 80 L 608 80 L 607 79 L 606 78 L 605 77 L 604 77 L 603 76 L 602 75 L 601 74 L 600 74 L 599 73 L 598 72 L 597 71 L 596 71 L 595 70 L 594 69 L 593 68 L 592 68 L 591 67 L 590 66 L 589 66 L 588 65 L 587 64 L 586 63 L 585 63 L 584 62 L 583 62 L 582 62 Z" fill="#ffffff" fill-rule="evenodd"/>
</svg>
